# xmcd CD database file
#
# Track frame offsets:
#	150
#	47382
#	102784
#	155469
#	189153
#	237168
#	296473
#
# Disc length: 4698 seconds
#
# Revision: 0
# Processed by: cddbd v1.5.2PL0 Copyright (c) Steve Scherf et al.
# Submitted via: CDex 1.51
#
DISCID=4c125807
DTITLE=Lee Konitz - Tender Lee for Chet
DYEAR=1998
DGENRE=Jazz
TTITLE0=Blues for Chet
TTITLE1=My funny valentine
TTITLE2=Just friends
TTITLE3=It could happen to you
TTITLE4=But not for me
TTITLE5=What's new
TTITLE6=I'll remember April
EXTD=YEAR: 1998
EXTT0=
EXTT1=
EXTT2=
EXTT3=
EXTT4=
EXTT5=
EXTT6=
PLAYORDER=
